#!OML:ASF H:\Terrain\Patient Classification 1\Animal2\Wednesday\Animal2.ASF
:FULLY-SPECIFIED
:DEGREES
2638
root 14.0089 16.7895 -10.7943 15.9606 -36.2226 -20.5543
lowerback 15.7622 -1.3722 -0.586985
upperback -4.5195 -2.05956 -0.616396
thorax -13.9671 -0.938636 0.210126
lowerneck 3.03306 0.246622 13.0703
upperneck -23.7383 -3.35131 -21.282
head -8.15804 -1.07284 -9.54524
rclavicle 2.22887e-014 2.8625e-014
rhumerus 42.6936 -35.2436 -10.1733
rradius 45.5697
rwrist 12.0971
rhand -10.4233 19.7956
rfingers 7.12502
rthumb 15.576 -9.59717
lclavicle 2.22887e-014 2.8625e-014
lhumerus 52.7045 49.0962 3.7254
lradius 83.9295
lwrist 59.663
lhand -31.2955 19.4702
lfingers 7.12502
lthumb -4.56847 49.4009
rfemur -32.3618 -14.601 1.31516
rtibia 75.2645
rfoot 7.81502 -3.46809
rtoes 20.0393
lfemur -34.9787 10.793 -0.294303
ltibia 59.4592
lfoot -25.6703 -1.21196
ltoes -19.5161
2639
root 14.0224 16.8135 -10.7891 16.12 -36.2364 -20.9658
lowerback 16.0866 -1.44302 -0.493335
upperback -4.49608 -2.13586 -0.604732
thorax -14.1407 -0.978967 0.199547
lowerneck 2.55959 0.447763 13.4358
upperneck -22.6032 -3.01299 -21.9359
head -7.62361 -0.929319 -9.80205
rclavicle -3.37934e-014 -2.54444e-014
rhumerus 41.665 -34.8966 -9.31796
rradius 46.0844
rwrist 11.7604
rhand -8.68089 20.2466
rfingers 7.12502
rthumb 17.2536 -9.00748
lclavicle -3.37934e-014 -2.54444e-014
lhumerus 52.1615 48.3789 3.52825
lradius 84.06
lwrist 59.903
lhand -31.2918 19.8687
lfingers 7.12502
lthumb -4.56495 49.7995
rfemur -33.5155 -14.9545 1.2788
rtibia 75.958
rfoot 8.23913 -4.22972
rtoes 22.5432
lfemur -34.7416 11.0073 0.0387605
ltibia 59.1633
lfoot -25.5234 -1.19285
ltoes -19.8108
2640
root 14.0359 16.8316 -10.782 16.359 -36.3698 -21.2874
lowerback 16.279 -1.41684 -0.538005
upperback -4.50364 -2.10295 -0.536172
thorax -14.2626 -0.954225 0.297696
lowerneck 3.32495 -0.243532 12.6003
upperneck -23.1502 -3.9591 -21.1137
head -8.14123 -1.32668 -9.31002
rclavicle -4.28132e-014 3.18055e-014
rhumerus 40.8602 -34.6921 -8.49522
rradius 46.3387
rwrist 11.5268
rhand -6.74333 20.5146
rfingers 7.12502
rthumb 19.1177 -8.56585
lclavicle -4.28132e-014 3.18055e-014
lhumerus 51.7439 47.611 3.52229
lradius 84.0058
lwrist 59.9011
lhand -31.1535 20.2543
lfingers 7.12502
lthumb -4.4314 50.188
rfemur -34.8303 -15.3147 1.15832
rtibia 76.5808
rfoot 8.81907 -4.67697
rtoes 24.3652
lfemur -34.5909 11.2531 0.253049
ltibia 58.887
lfoot -25.3551 -1.63674
ltoes -18.7207
2641
root 14.0442 16.8528 -10.756 16.261 -36.5614 -21.354
lowerback 16.3033 -1.45251 -0.688429
upperback -4.27255 -2.19223 -0.634428
thorax -14.0033 -0.990062 0.295105
lowerneck 3.34521 -0.531628 12.36
upperneck -23.0615 -4.32556 -20.8019
head -8.18472 -1.50553 -9.11011
rclavicle -7.64079e-014 -4.13472e-014
rhumerus 40.3511 -34.8166 -8.20392
rradius 46.6112
rwrist 11.2863
rhand -4.63307 20.6733
rfingers 7.12502
rthumb 21.1459 -8.19349
lclavicle -7.64079e-014 -4.13472e-014
lhumerus 51.1324 47.155 2.97829
lradius 83.8889
lwrist 59.9085
lhand -30.7602 20.4843
lfingers 7.12502
lthumb -4.05154 50.4255
rfemur -35.7077 -15.8285 0.658279
rtibia 77.0629
rfoot 9.31774 -4.59588
rtoes 26.0979
lfemur -34.09 11.3253 0.221275
ltibia 58.6214
lfoot -25.455 -1.80779
ltoes -18.3965
2642
root 14.0503 16.8742 -10.7271 16.1808 -36.6376 -21.4819
lowerback 16.3213 -1.59214 -0.713318
upperback -4.0959 -2.39773 -0.755358
thorax -13.811 -1.0914 0.229292
lowerneck 2.88345 -0.468265 12.4943
upperneck -22.1749 -4.12197 -20.8731
head -7.76366 -1.44946 -9.11222
rclavicle -2.07978e-014 2.22639e-014
rhumerus 39.8887 -34.699 -8.07644
rradius 47.1317
rwrist 10.7631
rhand -2.37252 20.672
rfingers 7.12502
rthumb 23.3161 -7.93606
lclavicle -2.07978e-014 2.22639e-014
lhumerus 50.0454 46.6014 1.86723
lradius 83.8924
lwrist 60.0426
lhand -30.7044 20.37
lfingers 7.12502
lthumb -3.99767 50.3122
rfemur -36.4088 -16.4595 0.242058
rtibia 77.4441
rfoot 9.83001 -4.21976
rtoes 27.0528
lfemur -33.6427 11.3343 0.261952
ltibia 58.4049
lfoot -25.5491 -1.7747
ltoes -18.1057
2643
root 14.0541 16.8858 -10.7051 16.331 -36.657 -21.7988
lowerback 16.3116 -1.74366 -0.66101
upperback -4.03028 -2.58515 -0.731104
thorax -13.7288 -1.18183 0.277497
lowerneck 2.29949 -0.294191 12.2796
upperneck -21.0089 -3.7311 -20.8119
head -7.19356 -1.29543 -8.99082
rclavicle -3.02277e-014 4.45278e-014
rhumerus 39.6823 -34.4086 -7.99214
rradius 47.5633
rwrist 9.95398
rhand -0.126513 20.4513
rfingers 7.12502
rthumb 25.4692 -7.86681
lclavicle -3.02277e-014 4.45278e-014
lhumerus 48.8106 45.9185 0.946768
lradius 84.0847
lwrist 60.1032
lhand -30.777 20.5698
lfingers 7.12502
lthumb -4.06784 50.5107
rfemur -37.2502 -17.1025 0.088919
rtibia 77.8284
rfoot 10.5066 -4.09316
rtoes 28.2833
lfemur -33.4158 11.5077 0.494559
ltibia 58.2339
lfoot -25.4972 -2.15984
ltoes -17.3122
